<svg width="18" height="18" viewBox="0 0 18 18" fill="none" xmlns="http://www.w3.org/2000/svg">
<path d="M5.70231 6.91675L12.6467 8.84572L10.0186 13.2263C10.0186 13.2263 10.0186 13.2263 10.0186 13.2263C9.96558 13.3147 9.93756 13.4158 9.93756 13.5189C9.93756 15.4936 11.544 17.1 13.5187 17.1C15.4935 17.1 17.0999 15.4936 17.0999 13.5189C17.0999 13.4158 17.0718 13.3146 17.0188 13.2263L16.9331 13.2777L17.0188 13.2263L14.7396 9.42704L16.379 9.88242C16.4297 9.89653 16.481 9.90329 16.5315 9.90329C16.7806 9.90329 17.0092 9.73851 17.0792 9.48666L17.0792 9.48663C17.1632 9.184 16.9861 8.87049 16.6834 8.78643L13.6657 7.94819L9.56881 6.81021V1.57819C9.56881 1.43938 9.54375 1.27339 9.45918 1.13881C9.37041 0.99753 9.22125 0.9 9.00006 0.9C8.87746 0.9 8.77536 0.930984 8.69304 0.987249C8.61136 1.04308 8.55553 1.1194 8.51753 1.20028C8.44305 1.35882 8.43131 1.54746 8.43131 1.67977V6.49424L4.62837 5.43788L1.62117 4.60255C1.31856 4.51844 1.00501 4.69568 0.920918 4.99832L0.920912 4.99834C0.836895 5.30098 1.01403 5.61448 1.31672 5.69855C1.31672 5.69855 1.31673 5.69855 1.31673 5.69855L3.60937 6.3354L0.981316 10.7159C0.98131 10.7159 0.981304 10.7159 0.981298 10.7159C0.928266 10.8043 0.900238 10.9054 0.900299 11.0085C0.900299 11.0085 0.900299 11.0085 0.900299 11.0085L1.0003 11.0085C1.00024 11.9383 1.36233 12.8125 2.01986 13.47C2.67742 14.1276 3.55161 14.4897 4.48145 14.4897C6.40094 14.4897 7.96259 12.9281 7.96259 11.0085C7.96259 10.9236 7.93947 10.8402 7.89578 10.7674L5.70231 6.91675ZM15.8951 14.0876C15.638 15.1616 14.6701 15.9625 13.5187 15.9625C12.3674 15.9625 11.3994 15.1616 11.1424 14.0876H15.8951ZM11.5107 12.9501L13.5187 9.60316L15.5267 12.9501H11.5107ZM6.48942 10.4397H2.47341L4.48145 7.09284L6.48942 10.4397ZM4.48138 13.4522C3.33 13.4522 2.36211 12.6513 2.10501 11.5773H6.85779C6.60069 12.6513 5.63274 13.4522 4.48138 13.4522Z" fill="#003466" stroke="#003466" stroke-width="0.2"/>
</svg>
